<svg xmlns="http://www.w3.org/2000/svg" display="none">

    <symbol id="home" viewBox="0 0 477.846 477.846">
        <g>
            <path d="M472.847,226.846l-34.116-34.116L250.998,4.997c-6.664-6.663-17.468-6.663-24.132,0L39.132,192.73L4.999,226.864
                    c-6.548,6.78-6.361,17.584,0.419,24.132c6.614,6.388,17.099,6.388,23.713,0l4.983-5.018v214.801
                    c0,9.426,7.641,17.067,17.067,17.067h375.467c9.426,0,17.067-7.641,17.067-17.067V245.978l5,5.001
                    c6.78,6.548,17.584,6.36,24.132-0.419C479.235,243.946,479.235,233.46,472.847,226.846z M290.115,443.713h-102.4V307.179h102.4
                    V443.713z M409.581,443.713h-85.333v-153.6c0-9.426-7.641-17.067-17.067-17.067H170.648c-9.426,0-17.067,7.641-17.067,17.067
                    v153.6H68.248V211.845L238.914,41.178l170.667,170.667V443.713z"/>
        </g>
    </symbol>

    <symbol id="catalog" viewBox="0 0 511.977 511.977">
        <g>
            <path d="m498.237 366.527-114.499-114.527c21.484-48.774 12.291-107.913-27.594-147.808-51.966-51.978-136.081-51.985-188.053 0-51.844 51.856-51.844 136.232 0 188.088 41.198 41.207 101.574 49.053 149.773 26.771l113.914 113.941c18.366 18.37 48.097 18.372 66.463-.004 18.316-18.324 18.314-48.138-.004-66.461zm-308.931-95.458c-40.151-40.16-40.151-105.505 0-145.666 40.24-40.25 105.375-40.257 145.622 0 40.151 40.161 40.151 105.506 0 145.666-40.241 40.251-105.376 40.257-145.622 0zm287.717 140.711c-6.64 6.643-17.388 6.646-24.03.001l-108.834-108.86c8.946-7.042 16.919-15.128 23.842-24.23l109.02 109.046c6.627 6.629 6.628 17.414.002 24.043z"/>
            <path d="m15 244.947h63.962c8.284 0 15-6.716 15-15s-6.716-15-15-15h-63.962c-8.284 0-15 6.716-15 15s6.716 15 15 15z"/>
            <path d="m15 308.947h87.948c8.284 0 15-6.716 15-15s-6.716-15-15-15h-87.948c-8.284 0-15 6.716-15 15s6.716 15 15 15z"/>
            <path d="m15 372.947h151.911c8.284 0 15-6.716 15-15s-6.716-15-15-15h-151.911c-8.284 0-15 6.716-15 15s6.716 15 15 15z"/>
            <path d="m342.809 406.947h-327.809c-8.284 0-15 6.716-15 15s6.716 15 15 15h327.809c8.284 0 15-6.716 15-15s-6.716-15-15-15z"/>
        </g>
    </symbol>

    <symbol id="bag" viewBox="0 0 423.416 423.416">
        <g>
            <path d="M420.688,145.096c-2.069-2.033-4.961-2.997-7.837-2.612H300.525V92.851c0-49.052-39.764-88.816-88.816-88.816
				s-88.816,39.764-88.816,88.816v49.633H10.565c-3.135,0-6.269,0-7.837,2.612c-2.106,2.024-3.083,4.954-2.612,7.837L39.3,367.137
				c5.474,29.881,31.275,51.746,61.649,52.245h221.518c30.461-0.749,56.208-22.787,61.649-52.767L423.3,152.933
				C423.771,150.05,422.794,147.12,420.688,145.096z M143.79,92.851c0-37.51,30.408-67.918,67.918-67.918
				c37.51,0,67.918,30.408,67.918,67.918v49.633H143.79V92.851z M363.218,364.002c-3.519,19.801-20.641,34.289-40.751,34.482
				H100.949c-20.11-0.193-37.232-14.68-40.751-34.482l-37.094-200.62h377.208L363.218,364.002z"/>
			<path d="M290.076,265.259c5.771,0,10.449-4.678,10.449-10.449v-31.347c0-5.771-4.678-10.449-10.449-10.449
				c-5.771,0-10.449,4.678-10.449,10.449v31.347C279.626,260.581,284.305,265.259,290.076,265.259z"/>
			<path d="M133.341,265.259c5.771,0,10.449-4.678,10.449-10.449v-31.347c0-5.771-4.678-10.449-10.449-10.449
				c-5.771,0-10.449,4.678-10.449,10.449v31.347C122.892,260.581,127.57,265.259,133.341,265.259z"/>
        </g>
    </symbol>

    <symbol id="user" viewBox="0 0 512 512">
        <g>
            <path d="M437.02,330.98c-27.883-27.882-61.071-48.523-97.281-61.018C378.521,243.251,404,198.548,404,148
			C404,66.393,337.607,0,256,0S108,66.393,108,148c0,50.548,25.479,95.251,64.262,121.962
			c-36.21,12.495-69.398,33.136-97.281,61.018C26.629,379.333,0,443.62,0,512h40c0-119.103,96.897-216,216-216s216,96.897,216,216
			h40C512,443.62,485.371,379.333,437.02,330.98z M256,256c-59.551,0-108-48.448-108-108S196.449,40,256,40
			c59.551,0,108,48.448,108,108S315.551,256,256,256z"/>
        </g>
    </symbol>

</svg>